<svg width="500" height="400" viewBox="0 0 500 400" xmlns="http://www.w3.org/2000/svg">
  <rect width="500" height="400" fill="#f8f9fa" rx="8"/>

  <rect x="0" y="0" width="500" height="50" fill="#ffffff" stroke="#dee2e6" rx="8 8 0 0"/>
  <text x="20" y="30" font-family="Arial, sans-serif" font-size="16" font-weight="bold" fill="#212529">Trade Now — Guarded Execution</text>

  <!-- Order ticket -->
  <rect x="30" y="70" width="260" height="220" fill="#ffffff" stroke="#dee2e6" rx="6"/>
  <text x="50" y="92" font-family="Arial, sans-serif" font-size="12" font-weight="bold" fill="#212529">RELIANCE</text>
  <text x="50" y="108" font-family="Arial, sans-serif" font-size="11" fill="#6c757d">NSE • Equity</text>

  <rect x="50" y="120" width="100" height="28" fill="#28a745" rx="4"/>
  <text x="100" y="138" font-family="Arial, sans-serif" font-size="12" font-weight="bold" fill="#ffffff" text-anchor="middle">BUY</text>

  <rect x="160" y="120" width="100" height="28" fill="#ffffff" stroke="#dee2e6" rx="4"/>
  <text x="210" y="138" font-family="Arial, sans-serif" font-size="12" fill="#6c757d" text-anchor="middle">SELL</text>

  <text x="50" y="170" font-family="Arial, sans-serif" font-size="11" fill="#6c757d">Quantity</text>
  <rect x="50" y="176" width="100" height="26" fill="#ffffff" stroke="#dee2e6" rx="4"/>
  <text x="60" y="194" font-family="Arial, sans-serif" font-size="12" fill="#212529">10</text>

  <text x="160" y="170" font-family="Arial, sans-serif" font-size="11" fill="#6c757d">Price (₹)</text>
  <rect x="160" y="176" width="100" height="26" fill="#ffffff" stroke="#dee2e6" rx="4"/>
  <text x="170" y="194" font-family="Arial, sans-serif" font-size="12" fill="#212529">1,425.50</text>

  <text x="50" y="222" font-family="Arial, sans-serif" font-size="11" fill="#6c757d">Broker</text>
  <rect x="50" y="228" width="210" height="26" fill="#ffffff" stroke="#dee2e6" rx="4"/>
  <text x="60" y="246" font-family="Arial, sans-serif" font-size="12" fill="#212529">Dhan ▾</text>

  <rect x="50" y="266" width="210" height="14" fill="#e9ecef" rx="7"/>
  <text x="155" y="277" font-family="Arial, sans-serif" font-size="10" fill="#6c757d" text-anchor="middle">Margin used 32%</text>

  <!-- Guardrails panel -->
  <rect x="310" y="70" width="160" height="220" fill="#ffffff" stroke="#dee2e6" rx="6"/>
  <text x="325" y="92" font-family="Arial, sans-serif" font-size="12" font-weight="bold" fill="#212529">Pre-trade checks</text>

  <circle cx="330" cy="118" r="6" fill="#28a745"/>
  <text x="345" y="122" font-family="Arial, sans-serif" font-size="11" fill="#212529">Broker connected</text>

  <circle cx="330" cy="142" r="6" fill="#28a745"/>
  <text x="345" y="146" font-family="Arial, sans-serif" font-size="11" fill="#212529">Sync healthy</text>

  <circle cx="330" cy="166" r="6" fill="#28a745"/>
  <text x="345" y="170" font-family="Arial, sans-serif" font-size="11" fill="#212529">Symbol valid</text>

  <circle cx="330" cy="190" r="6" fill="#28a745"/>
  <text x="345" y="194" font-family="Arial, sans-serif" font-size="11" fill="#212529">Quantity OK</text>

  <circle cx="330" cy="214" r="6" fill="#ffc107"/>
  <text x="345" y="218" font-family="Arial, sans-serif" font-size="11" fill="#212529">Concentration 18%</text>

  <circle cx="330" cy="238" r="6" fill="#28a745"/>
  <text x="345" y="242" font-family="Arial, sans-serif" font-size="11" fill="#212529">Margin available</text>

  <rect x="325" y="258" width="135" height="22" fill="#16a34a" rx="4"/>
  <text x="392" y="273" font-family="Arial, sans-serif" font-size="11" font-weight="bold" fill="#ffffff" text-anchor="middle">Place order</text>

  <!-- Footer summary -->
  <rect x="30" y="320" width="440" height="60" fill="#ffffff" stroke="#dee2e6" rx="4"/>
  <text x="50" y="340" font-family="Arial, sans-serif" font-size="12" font-weight="bold" fill="#212529">Behavioural guardrails</text>
  <text x="50" y="360" font-family="Arial, sans-serif" font-size="11" fill="#6c757d">No revenge trade • No overtrading • Risk profile: Moderate</text>
</svg>
